<?xml version="1.0" encoding="UTF-8"?>
<svg version="1.1" viewBox="0 0 800 800" width="1280" height="1280" xmlns="http://www.w3.org/2000/svg">
<path transform="translate(0)" d="m0 0h800v800h-800z" fill="#FDFCFC"/>
<path transform="translate(337,341)" d="m0 0h87l1 44 14 19 11 14 13 17 16 21 15 20 12 15 13 17 2 4-1 1h-277v-3l12-17 10-13 14-19 10-13 14-19 27-36 5-8 1-5z" fill="#777879"/>
<path transform="translate(68,548)" d="m0 0h61l5 4 9 11 5 5 5 6v2l4 1v3h-75v42h76v30l-17 1h-58v41l150-1 16-2 14-5 10-7 7-8 5-8 4-12 1-6v-15l-4-16-6-12-8-9-10-6-11-4-11-2-24-2v73h-32l-1-1 1-102 3-1h46l23 3 15 4 12 5 10 7 8 7 8 11 8 15 5 15 2 12v20l-5 21-8 16-6 9-9 10-8 6-15 8-17 5-12 2-14 1h-180l-1-1v-174l1-1z" fill="#1062A9"/>
<path transform="translate(364,74)" d="m0 0h28l21 2 25 5 15 4 25 9 23 11 23 14 17 13 20 18 8 8 9 11 10 13 11 17 9 16 10 21 8 24 6 24 4 27 1 19-1 19-5 38-6 24-9 26-5 11h-1l1-9 6-22 5-23 2-15 1-16v-23l-2-22-5-25-4-15-7-20-13-27-12-19-10-13-12-14-18-18-14-11-18-12-18-10-19-9-33-11-33-6-12-1h-36l-27 4-18 4-24 8-16 7-21 11-15 10-16 12-10 9-18 18-11 14-11 16-9 15-11 23-7 19-6 21-4 22-2 23v12l1 19 4 26 5 20 6 20 1 9-4-5-8-18-5-16-4-14-4-20-4-26v-36l4-28 6-25 9-26 7-16 13-23 11-16 11-14 15-16 9-9 8-7 14-11 20-13 16-9 28-12 26-8 35-6z" fill="#FEBD42"/>
<path transform="translate(420,548)" d="m0 0h178l5 2 10 11 11 11v2l4 1-1 3-209 1-11 3-12 6-8 7-7 9-6 12-3 12v17l3 12 6 12 8 10 3 3 2 12 3 9 9 12 5 4 3 4-7-1-17-6-10-6-13-10-9-9-9-14-6-14-3-13-1-11 2-19 5-16 7-14 10-13 9-9 10-7 16-8 15-4z" fill="#1263A9"/>
<path transform="translate(692,548)" d="m0 0h16l12 3 12 6 10 9 7 9 6 13 2 9v14l-3 13-8 16-11 13-10 10-8 7-14 13-11 9-2 3h67v29l-6 1h-106v-30l5-5 16-15 13-12 7-7 8-7 16-15 8-9 6-12 1-3v-14l-4-8-5-5-9-4h-13l-9 4-3 1-6 12-2 15h-30l-1-1 1-16 4-13 6-10 9-10 10-7 13-5z" fill="#0F62A9"/>
<path transform="translate(297,229)" d="m0 0h2l1 26 1 5 1-27 16 6 14 7v92l-18 22-7 8-5 4-1-26-1 2-1 28-12 14-8 10-13 16-4 5h-2v-172l22-12z" fill="#777879"/>
<path transform="translate(372,175)" d="m0 0h11l9 3 18 3v12l-3 6h-2l1 17 5 9v9l-2 4-4 1 1 13v23l-4-1v-4l-2 5 10 1 1 1v5l-6 7h-2l3 3 1 12v3 7l-6 2 1 12 1 3h-43l1-15-5-1v-23l1-3-1-3-4-2v-8h5v-37l-5-2v-13l4-7 1-19h-4l-1-5v-12l2-1 17-1z" fill="#7C8086"/>
<path transform="translate(535,610)" d="m0 0h32v12h61v30l-23 1h-34l-4-1 1 41h59l1 1 1 12v17l-4 2h-91v-114z" fill="#1263A9"/>
<path transform="translate(428,634)" d="m0 0h85l6 1v90l-6 1-26-1-1-19h-2l-5 5-17 8-13 4-9 2h-21l-6-2-8-7-7-9-5-8-3-15 2-2 12 7 12 4 6 1h13l16-4 14-9 8-8 4-6v-2h-29l-7-9-10-15-3-4z" fill="#FEBC41"/>
<path transform="translate(463,218)" d="m0 0 15 8 20 10 2 2 1 63v120l-5-4-9-11-13-16-8-10-4-7z" fill="#77787A"/>
<path transform="translate(330,344)" d="m0 0h2v36l-3 8-26 34-12 16-16 21-9 12-16 21-12 16-4 4-175 1v-1l15-2 70-5 51-4 8-1 9-11 8-10 9-11 26-32 9-11 13-16 9-11 13-16 8-10 13-15z" fill="#787A7B"/>
<path transform="translate(429,344)" d="m0 0h2l9 11 9 10 9 11 12 15 9 11 11 13 9 11 13 16 9 11 8 10 11 13 13 17 1 3h2l1 4 101 8 31 2 12 2v1l-173-1-11-14-10-13-14-18-12-16-13-17-14-18-13-17-9-12-3-8z" fill="#78797B"/>
<path transform="translate(297,229)" d="m0 0h2l1 26 1 5 1-27 16 6 14 7v92l-18 22-7 8-5 4-1-26-1 2-1 28-2 1v-141l1-5-3-1z" fill="#817263"/>
<path transform="translate(456,219)" d="m0 0h3l1 44v107l-5-4-9-11-11-12-6-8v-101l8-5z" fill="#7B7C7D"/>
<path transform="translate(363,196)" d="m0 0h7l1 2 10 1 1 3 2-3 8-2h8l1 2v25l1 10-1 35h-9l-2 7h-18l-12-1 1-34 1-6v-10h2l-3-9v-17h2z" fill="#888A8D"/>
<path transform="translate(544,262)" d="m0 0 6 2 5 3 1 2v49l-1 169-4-2-7-10-1-2v-208z" fill="#FEC949"/>
<path transform="translate(211,275)" d="m0 0h5l1 202-7 9h-4l-1-13v-194l3-3z" fill="#FEC847"/>
<path transform="translate(362,463)" d="m0 0h41l5 10 10 23 1 6h-73l-1-2 6-13 9-22z" fill="#FDFCFC"/>
<path transform="translate(508,244)" d="m0 0 6 1 5 4v186l-1 7-3-1-7-10z" fill="#FFC846"/>
<path transform="translate(394,287)" d="m0 0 11 1-2 1 3 3 1 12v3 7l-6 2 1 12 1 3h-43l1-15-5-1v-23l2-3 20-1z" fill="#898B8E"/>
<path transform="translate(247,256)" d="m0 0h4l1 178-7 10-3-1-1-2v-182z" fill="#FFD25D"/>
<path transform="translate(139,263)" d="m0 0 3 4 1 5h2l1-3 1 2-8 27-4 22-2 23v12l1 19 4 26 5 20 6 20 1 9-4-5-8-18-5-16-4-14-4-20-4-26v-36l4-28 1-5h1v15h3v-2h2l1 5 3-7-5-2 3-15 4-10z" fill="#FEC847"/>
<path transform="translate(526,253)" d="m0 0 6 2 3 2v206l-8-8z" fill="#7D7E7F"/>
<path transform="translate(607,256)" d="m0 0h5l4 4 3 7 2 6 3 10 4 7 2 1 1-7h1l4 27 1 19-1 19-5 38-6 24-9 26-5 11h-1l1-9 6-22 5-23 2-15 1-16v-23l-2-22-5-25-4-15-7-20z" fill="#FEC948"/>
<path transform="translate(451,233)" d="m0 0 6 1v6l-7 3-4 1 7 2 1-3h4v14l-12 1-1 2h9l4-1v14h-7l-8 1-1-14-11 2 1 5h9v7l-10 1-1 2h11v9l-1 1-7 1-1 3 8 1 1 1v7l-9-2 1 3 8 5-1 7-5 1-3-1 1 5 5 2 4 4 6 1 3 2v2l4 1-2-5-8-6-1-4 1-3 6 2 6 3 1 8v9l-2 9-6-4-4-4-5-3-3-3-4 1v2l-3-1v-10l-1-5-1-17v-62h1l1 18 11-2 1-3 4-1v-1h-4v-13z" fill="#9A856A"/>
<path transform="translate(231,265)" d="m0 0h2v193l-6 7-2-1v-60l1-136z" fill="#7C7D7E"/>
<path transform="translate(363,236)" d="m0 0 4 1 11 10 2 1v24h3l1-24 10-9 6-2 1 1v31h-9l-2 7h-18l-12-1 1-34z" fill="#FDFDFD"/>
<path transform="translate(249,255)" d="m0 0h3l4 6 1 21 3 25v96h-1l-1-35-1 5-2 23-1 6v30l-2 1-1-22v-155z" fill="#FFFBF3"/>
<path transform="translate(442,259)" d="m0 0 1 3v12l10-2 5 2v16l-2 2h-5v1l6 1 1 2v29h-1v-8l-4-1-8-4v7l4 2 5 4 1 5-5-1-4-4h-5l-4-5-5-2v-5h8v-7l-8-5v-3l9 2-1-7-8-2 1-4 7-1 1-9h-11l1-3h10v-7h-9l-2 1v-6l6-2z" fill="#806F60"/>
<path transform="translate(518,248)" d="m0 0h2v3l5 2-2 7 1 1 2-2v21l-2-4v10l2 4v62l-2 45-2 4h-2v25h-1l-1-56z" fill="#FEFBF3"/>
<path transform="translate(508,244)" d="m0 0 3 1h-2l2 9v169l1 5 3-1 1-12-1-144-1-8 1-1 2-14 2 1v186l-1 7-3-1-7-10z" fill="#FFD25D"/>
<path transform="translate(240,259)" d="m0 0h1l1 182 3 4-5 1-1-7v-13h-2l-1-8 1-2h2v-52l-2 3-1 12-1 62h-1v-177l3 4 2-4-2-1h2z" fill="#FEFBF3"/>
<path transform="translate(391,178)" d="m0 0 19 3v12l-3 6h-2l1 17 5 9v9l-2 4-4 1 1 13v23l-4-1v-4l-2 6h-10l1-5 1-2h9v-41l-1-5v-26l-10 1-2-2-1-15z" fill="#78797A"/>
<path transform="translate(372,417)" d="m0 0h18l4 9 7 19v2h-38l4-16z" fill="#FDFCFC"/>
<path transform="translate(394,287)" d="m0 0 11 1-2 1 3 3v11l-1 1h-48v-14l1-1 20-1z" fill="#7C8086"/>
<path transform="translate(449,367)" d="m0 0 5 4 9 11 10 13 12 14 5 7-7 1-3 1-4-2-2-5h-2l-1 3-4-1-9-12-1-5 4 2 7 8-2-4 2-4-3-1-5-5-6-4-4 1-6-5-6-9-1-5 5 1 1-3 5 1 1 1z" fill="#7C8085"/>
<path transform="translate(211,275)" d="m0 0h5v47h-1v-46l-5 1-1 8v193l4 1 2 1-6 7-3-1-1-13v-194l3-3z" fill="#FFD35E"/>
<path transform="translate(302,241)" d="m0 0 5 1 9 3v6l-7 2-5 2v2l12 3v8l-1 2-11-1v3l5 1 4 1 3-1 1 1v10h-13l1 2 11 1 1 11-2 3-2-1h-9l-1 3-1-3z" fill="#A08869"/>
<path transform="translate(599,504)" d="m0 0 21 1 38 3 31 2 12 2v1l-155-1v-1l7-1 1-1 26-1v-2l18-1z" fill="#7C7F82"/>
<path transform="translate(372,175)" d="m0 0h11l7 2 1 2-3 3 1 14 1 3-6 1-1 5-2-3v-3h-10v-18h-4v2h2v12h-4v-2l-5 1-1-3-2 2h-5v-12l2-1 17-1z" fill="#777879"/>
<path transform="translate(182,502)" d="m0 0h13l-1 3-15 1v2l26 2v1l-98 1-48 1v-1l15-2 70-5z" fill="#767A7D"/>
<path transform="translate(208,272)" d="m0 0h8l1 1v186h-1v-184l-10 2v196l1 13 2 2h-4l-1-14-1-64v-131l3-6z" fill="#FFFBF3"/>
<path transform="translate(370,180)" d="m0 0 2 1-1 17-1-2h-7v3h-2l1 17 2 9h-2l1 4v9l-1 3-1 33 11 1v1h-15v-37l-5-2v-13l4-7 1-19h-4v-5l4-1 2-4 1 6 5-1v2h4v-12h-2v-2z" fill="#7B7C7D"/>
<path transform="translate(269,682)" d="m0 0 2 1-2 4-4 1-3 4-6 2-4 2-11 1-5 2h-10l-7-1-10 1-12-1h-24l-22 1h-5l-2 1-2-1-24-2-36-1v-1l147-1 20-3 14-5z" fill="#115AA2"/>
<path transform="translate(377,362)" d="m0 0 10 1 1 24 2 12v5h-17l1-14 1-8 1-19z" fill="#FDFCFC"/>
<path transform="translate(391,682)" d="m0 0 18 9 13 3h13l10-1-3 2-5 1h-17l-16-3-1-3h-3l3 9 3 3 6 11 2 1v2l6 1v4l-1 1h8l4-1 1 2 5-1 3-2h10l3 2-13 3h-21l-6-2-8-7-7-9-5-8-3-15z" fill="#FEC849"/>
<path transform="translate(123,298)" d="m0 0h1v48l1 17 7 36 2 6h2l-4-26-1-20v-25l2-13h1l-1 22v12l1 19 4 26 5 20 6 20 1 9-4-5-8-18-5-16-4-14-4-20-4-26v-36z" fill="#FFD35E"/>
<path transform="translate(297,229)" d="m0 0h2l1 26 1 5h1l1 44v36l-2-2v8l-1 2-1 28-2 1v-141l1-5-3-1z" fill="#8A8C8F"/>
<path transform="translate(363,196)" d="m0 0h7l1 2 10 1v36l-4-1-1-2v-13l-7 3-1 2h-4l-3-8v-17h2z" fill="#FDFCFC"/>
<path transform="translate(314,306)" d="m0 0h1v7l-4 1v2h-6l1 7h5v-2h2l2-4 1 4v21l-4 8-5 3-3-1-2-6v-32l1-5 9-2z" fill="#A08969"/>
<path transform="translate(129,548)" d="m0 0h29l1 3v19l-1 8-5-2-4-6-5-4-7-9v-2l-3-1z" fill="#FBC64A"/>
<path transform="translate(392,197)" d="m0 0h8l1 2v18l-1 4-4 2h-4v-4h-4l-1 12-1 3-3 1v-35z" fill="#FDFCFC"/>
<path transform="translate(611,266)" d="m0 0 2 2 6 18 4 17 4 23 1 8v33l-2 23-2 10v2l2 1 1-3-1 7-10 30-5 11h-1l1-9 6-22 5-23 2-15 1-16v-23l-2-22-5-25-4-15-3-9z" fill="#FFD25D"/>
<path transform="translate(68,548)" d="m0 0h61l5 4 9 11 5 5 5 6v2l4 1v3h-75v-1l69-1v-2l-3-1v-2l-3-1-4-5-3-6-4-4-4-2-2-4-43 1h-26l-6 7-2-1v-8z" fill="#2B649E"/>
<path transform="translate(602,548)" d="m0 0h26l1 1v25l-3 1-5-5-8-7-7-8-4-5z" fill="#FEC848"/>
<path transform="translate(445,312)" d="m0 0 6 2 6 3 1 8v9l-2 9-6-4-4-4-5-3-3-3-4 1v2l-3-1v-10l-1-2 2-2 6 3 4 4 6 1 3 2v2l4 1-2-5-8-6-1-4z" fill="#A68E68"/>
<path transform="translate(316,321)" d="m0 0h1l1 23 1-11 4 1 3-2v2l2 1-3 4 1 7-8 9-7 8-4 5-5 4v-26l3 6 6-2 4-8z" fill="#797A7B"/>
<path transform="translate(453,228)" d="m0 0h5v15l-4 1-1 2-9-1 2-2 10-3 1-6-14 1v13l6-1-4 4-2-1v6l-2-2-11 2v-19l13-4z" fill="#806F5F"/>
<path transform="translate(419,500)" d="m0 0 1 3-2 3 4-2-1 5h-3-8l-5-1h-10l-19-1h-27l2-5h68z" fill="#7B8085"/>
<path transform="translate(360,290)" d="m0 0h32l9 1-1 8h-36l-2-1v-6z" fill="#FDFCFC"/>
<path transform="translate(421,549)" d="m0 0h170l8 1v1l-43 1-101-1-34-1z" fill="#0C58A3"/>
<path transform="translate(692,548)" d="m0 0h16l5 1v2l-19 1-8 1-10 4-4 2v2l-6 3-5 7-4 1v3h-2v5l-5 6-3 14-3 1v-7l4-13 6-10 9-10 10-7 13-5z" fill="#195EA0"/>
<path transform="translate(302,241)" d="m0 0 5 1 9 3v6l-7 2-5 2v2l12 3v8l-1 2-10-1-3-2z" fill="#9B8569"/>
<path transform="translate(208,503)" d="m0 0h2l1 9h-104v-1l81-1-9-2v-2z" fill="#909294"/>
<path transform="translate(352,276)" d="m0 0h58l1 1v5l-5 6h-4l-1 2v-2l-3-1 1-4 5-2-4-1-9-1-23-1-4-1-1 2-10 2z" fill="#797A7C"/>
<path transform="translate(313,330)" d="m0 0h2l1 3v9l-4 8-5 3-3-1-2-6 1-10h2l1-2 4-2z" fill="#9B8569"/>
<path transform="translate(364,179)" d="m0 0h6v2h-3v2h2v12h-4v-2l-5 1-1-3-2 2h-5v-12l2-1z" fill="#77787A"/>
<path transform="translate(440,308)" d="m0 0 2 2 1-2 4 1 7 5h2l2-2v13h-1v-8l-4-1-8-4v7l4 2 5 4 1 5-5-1-4-4h-5l-4-5-5-2v-5h8z" fill="#9B8569"/>
<path transform="translate(451,233)" d="m0 0 6 1v6l-7 3-4 1 7 2 1-3h4v14h-6v-1h5v-5l-11 2-3 2v-5l4-1v-1h-4v-13z" fill="#9B8569"/>
<path transform="translate(401,239)" d="m0 0h4l1 13v23l-4-1v-4l-2 6h-10l1-5 1-2h9z" fill="#8A8C8F"/>
<path transform="translate(129,549)" d="m0 0 4 2 8 9 5 7 6 5 1 4 4 1v3h-75v-1l69-1v-2l-3-1v-2l-3-1-4-5-3-6-4-4-4-2-2-2z" fill="#486E94"/>
<path transform="translate(455,259)" d="m0 0h3v14h-7l-8 1-1-13 3-1h9z" fill="#9B8569"/>
<path transform="translate(728,556)" d="m0 0 5 2 8 7 6 7 8 16 1 8h-2l-3-8-3-4-1-4h-2l-8-12-9-10z" fill="#185DA1"/>
<path transform="translate(392,179)" d="m0 0 14 1 4 1v2l-3 2-1 8-5-1h-10v-10h2z" fill="#797A7D"/>
<path transform="translate(370,180)" d="m0 0 2 1-1 17-1-2h-7v3h-2l1 18h-3v2h-2v-21h-4v-5l4-1 2-4 1 6 5-1v2h4v-12h-2v-2z" fill="#848586"/>
<path transform="translate(419,500)" d="m0 0 1 3-7 2h-60l-3-2 1-1h68z" fill="#898B8E"/>
<path transform="translate(391,178)" d="m0 0 2 4h-2v10l2-1h10l3 2v-8l4-2v10l-2 5-1-2-17 2-2-2-1-15z" fill="#898B8E"/>
<path transform="translate(319,277)" d="m0 0 9 1 1 1v6l-3 1 3 1v10l-9 1z" fill="#9B8569"/>
<path transform="translate(248,110)" d="m0 0 2 1-10 7-15 10-13 11-15 14-7 7-6 8h-2l-2 4-12 16-3 2 2-4 10-14 10-11 7-8 12-12 8-7 14-11z" fill="#FFCD52"/>
<path transform="translate(428,634)" d="m0 0h85l1 2-83 1h-3z" fill="#FFD35E"/>
<path transform="translate(487,707)" d="m0 0h1l2 9h5l2 3 5 2 9-1 3 3 4 1 1-2v3l-6 1-26-1z" fill="#FECB4D"/>
<path transform="translate(187,548)" d="m0 0h46l10 1v1l5 1v1h-59l-2-1z" fill="#26639E"/>
<path transform="translate(456,219)" d="m0 0h3l-2 4-4 2v4l-12 6-11 2-1-3 8-5z" fill="#797B7C"/>
<path transform="translate(302,233)" d="m0 0 16 6 14 7-1 15-2-2v-11l-8-2-15-5h-4z" fill="#73777C"/>
<path transform="translate(615,622)" d="m0 0h13v30l-8-1 3-4h2l1-18-2-1-1-4h-51v-1z" fill="#0D5CA6"/>
<path transform="translate(381,202)" d="m0 0 2 3v31l4 1-5 3-12-3 3-2v-6h3l1 5 3-1v-26z" fill="#797A7C"/>
<path transform="translate(450,251)" d="m0 0h7v5l-11 2-4 2-12 2v-6l6-2 6-1 1 2 3-3z" fill="#A08969"/>
<path transform="translate(394,287)" d="m0 0 11 1-2 1 3 3v7l-5 1-1-1v-6l1-2h-37l-2 1v6h-1v-6l-4-2 1-1 20-1z" fill="#888A8D"/>
<path transform="translate(429,237)" d="m0 0h1l1 28 1 2h9v7l-10 1-1 24h-1z" fill="#90897F"/>
<path transform="translate(391,691)" d="m0 0 2 3 3 9 9 12 5 4 3 4-7-1-9-3-2-12-3-5z" fill="#346695"/>
<path transform="translate(524,482)" d="m0 0 4 1 5 5 11 13 1 5-6-2-12-14-3-5z" fill="#FDFDFD"/>
<path transform="translate(551,502)" d="m0 0 3 1 19 1 7 2v3l-28 1-1-2z" fill="#8A8C8F"/>
<path transform="translate(315,302)" d="m0 0h1l1 10-2 6-2 3h-2v2h-5l-1-7h6v-2l3-1v-6l-5 2h-6v5h-1v-10l3-1v2l10-1z" fill="#9B8569"/>
<path transform="translate(245,403)" d="m0 0 2 4v9l3 1v16l-3 8-3 1v-13z" fill="#FFC846"/>
<path transform="translate(376,244)" d="m0 0h12l-3 4-1 24-2 1-2-1v-24l-4-2z" fill="#5F7A92"/>
<path transform="translate(448,278)" d="m0 0h8l1 2v9h-10l-3-3 1-6z" fill="#CAA871"/>
<path transform="translate(82,623)" d="m0 0h76l-1 4-10-1v-2l-30 1-2 1h-9l-1-1h-23z" fill="#0C58A3"/>
<path transform="translate(545,420)" d="m0 0h1l1 12 2-8 2 1v10l1 6-1 6-1-3h-3l-1 19h-1l-1-26z" fill="#FEBC41"/>
<path transform="translate(305,288)" d="m0 0h10v11h-11l-1-1v-9z" fill="#CAA871"/>
<path transform="translate(337,341)" d="m0 0h87l-2 3-1-1h-80l-2 1-1 12h-1z" fill="#8A8C8F"/>
<path transform="translate(722,621)" d="m0 0 2 1-5 10-3 1-2 4-3 3-6 5-1 2-3-1 3-6 11-11 4-6h3z" fill="#185DA1"/>
<path transform="translate(105,508)" d="m0 0h8l-1 3-5 1-48 1v-1l15-2z" fill="#808386"/>
<path transform="translate(458,221)" d="m0 0h1v41l-1-3-4 2h-9v-3l1-1h12l-1-16 1-13h-6l1-4z" fill="#7B7C7E"/>
<path transform="translate(470,674)" d="m0 0v3l-9 8-10 6-16 4h-13l-13-3-2-2 8 1 4 1h18l12-3 8-4 8-6z" fill="#FFFBF3"/>
<path transform="translate(320,248)" d="m0 0h2v2h6l1 1 1 10h-10l-1-1v-11z" fill="#9F8869"/>
<path transform="translate(357,247)" d="m0 0 4 1v26l11 1v1h-15z" fill="#87898B"/>
<path transform="translate(445,295)" d="m0 0 9 2 3 1v10l-5-1-8-6z" fill="#CAA871"/>
<path transform="translate(370,291)" d="m0 0h22v5l-14 1-8-1z" fill="#6E7882"/>
<path transform="translate(234,483)" d="m0 0h4l-1 4-8 10-7 8-3 1 1-5 11-14z" fill="#FDFCFC"/>
<path transform="translate(438,237)" d="m0 0 3 1v8 4h-9l-1-1v-8l3-3z" fill="#9B8569"/>
<path transform="translate(676,666)" d="m0 0m-1 1m-1 1m-1 1m-1 1m-1 1m-2 1 2 1-5 5-3 5-5 5-6 7h-3l-1 3-3-1 2-5 11-9z" fill="#1E61A0"/>
<path transform="translate(432,313)" d="m0 0 5 1 6 3 2 5 5 2 5 3v3l-5-1-4-4h-5l-4-5-5-2z" fill="#806F5F"/>
<path transform="translate(458,262)" d="m0 0h1v75l-2 1v-44h-6l-2-2 7-1 1-1v-17z" fill="#777778"/>
<path transform="translate(445,312)" d="m0 0 6 2 6 3v9l-4-1-8-6-1-4z" fill="#CAA871"/>
<path transform="translate(451,233)" d="m0 0 6 1v6l-6 2-7 1v-7z" fill="#CAA871"/>
<path transform="translate(399,196)" d="m0 0h8v3h-2l1 18-3 1v-2h-2l-1-17z" fill="#7C848C"/>
<path transform="translate(554,417)" d="m0 0h1v70l-4-2-6-8 1-2 5 5 1 3 2 1z" fill="#FFD35E"/>
<path transform="translate(321,371)" d="m0 0h3l-1 7-8 10-4 1 1-6z" fill="#FDFCFC"/>
<path transform="translate(437,370)" d="m0 0 4 2 10 12 2 5-5-1-8-9z" fill="#FDFCFC"/>
<path transform="translate(443,293)" d="m0 0 14 1 1 2v12l-2 3-6-4-6-2-1-1zm2 2-1 6 5 4 4 3h4v-10l-9-3z" fill="#9B8569"/>
<path transform="translate(370,180)" d="m0 0 2 1-1 17-1-2h-17v-3l4-1 2-4 1 6 5-1v2h4v-12h-2v-2z" fill="#8A8C8F"/>
<path transform="translate(502,453)" d="m0 0 4 2 8 9 2 5-6-1-7-9z" fill="#FDFCFC"/>
<path transform="translate(301,577)" d="m0 0 4 2 8 13 1 3h-3l-4-4-4-6-1-4h-2z" fill="#175DA1"/>
<path transform="translate(280,425)" d="m0 0 3 1-2 6-8 9-4-2 6-9z" fill="#FDFDFD"/>
<path transform="translate(303,396)" d="m0 0 2 4-8 11-5 1 1-4 8-11z" fill="#FDFCFC"/>
<path transform="translate(432,278)" d="m0 0 8 1 1 7-1 1h-7l-2-1v-7z" fill="#CAA871"/>
<path transform="translate(257,454)" d="m0 0h3l-1 5-8 10-4-1 2-5z" fill="#FDFCFC"/>
<path transform="translate(52,670)" d="m0 0h1l1 25 1 7-2 8h-1l-1-5v-34z" fill="#0C58A3"/>
<path transform="translate(692,548)" d="m0 0h16l5 1v2l-27 1v-3z" fill="#1E60A0"/>
<path transform="translate(480,424)" d="m0 0 4 2 9 12-1 3-4-2-6-7-3-7z" fill="#FDFDFD"/>
<path transform="translate(320,289)" d="m0 0h8l1 1v7l-9 1z" fill="#CDAA6E"/>
<path transform="translate(314,306)" d="m0 0h1v7l-4 2h-7l-1-1v-5l9-2z" fill="#CAA871"/>
<path transform="translate(443,276)" d="m0 0h15v14h-9v-1h8l-1-11-10 2-1 6v2l2 1h-4z" fill="#9B8569"/>
<path transform="translate(304,262)" d="m0 0h9l2 1 1 5-1 2-10-1-2-2z" fill="#CAA871"/>
<path transform="translate(304,245)" d="m0 0 8 1 4 2v3l-7 2-3 1-2-1-1-4z" fill="#CAA871"/>
<path transform="translate(364,179)" d="m0 0h6v2h-3l1 3h-3l-1 4-7-1-2-5 4-1h-5v-1z" fill="#7E8286"/>
<path transform="translate(364,280)" d="m0 0 9 1 3 1-4 4-2 1 1 2h-12l1-3 5-1z" fill="#777879"/>
<path transform="translate(457,396)" d="m0 0 4 2 7 8 3 6-5-1-7-8z" fill="#FDFCFC"/>
<path transform="translate(446,266)" d="m0 0h9l2 1v5l-4 1-8-1v-5z" fill="#CAA871"/>
<path transform="translate(320,264)" d="m0 0 8 1 1 7-1 1h-7l-1-1z" fill="#CAA871"/>
<path transform="translate(444,331)" d="m0 0 7 1 5 3 1 4-2 4-10-9z" fill="#CAA871"/>
<path transform="translate(440,720)" d="m0 0h10l3 2-13 3h-21v-1l17-1z" fill="#FECD52"/>
<path transform="translate(400,688)" d="m0 0 9 3 13 3h13l10-1-3 2-5 1h-17l-16-3-1-3-3-1z" fill="#FFD35E"/>
<path transform="translate(737,646)" d="m0 0h2l-1 4-13 13-4 1 6-8 2-4z" fill="#26619D"/>
<path transform="translate(450,251)" d="m0 0h7v5l-12 2-1-4 2-2z" fill="#CEAB6E"/>
<path transform="translate(392,179)" d="m0 0h6l-3 1 3 1v2l7-1-1 6-4-1-8-1-1-4h2z" fill="#7D8186"/>
<path transform="translate(475,670)" d="m0 0 1 2-9 11-5 4-5 1v2l-8 3-4-1 10-4 11-8 7-7z" fill="#FFCF57"/>
<path transform="translate(623,623)" d="m0 0h4v28l-3 1-4-2 3-3h2l1-18-2-1z" fill="#0C58A3"/>
<path transform="translate(554,509)" d="m0 0h25v2l-21 1h-12v-1l7-1z" fill="#7D8084"/>
<path transform="translate(352,682)" d="m0 0 3 1v2l3 1 5 7 5 5 3 4-4-1-10-10-5-7z" fill="#2B649C"/>
<path transform="translate(311,339)" d="m0 0h3l-1 5-5 5-3 1-1-1v-5z" fill="#D2AE6C"/>
<path transform="translate(388,218)" d="m0 0 4 1v6l-1 1v8h-2l-1 2-1-1v-16z" fill="#78797A"/>
<path transform="translate(276,593)" d="m0 0 3 2v2h2l5 8 3 5-2 4-2-3-5-9-5-6z" fill="#1E5F9F"/>
<path transform="translate(313,330)" d="m0 0h2v4h-2l-1 4-4 4-3-1 1-5z" fill="#806F5F"/>
<path transform="translate(304,326)" d="m0 0h10v2h-2v2h-3l-2 5-4 1v-8z" fill="#DAB367"/>
<path transform="translate(381,202)" d="m0 0 2 3v16h-1l-1 11h-1v-25z" fill="#85878A"/>
<path transform="translate(474,397)" d="m0 0 5 5 11 13h-3l-4-3-5-4-2-6h-2z" fill="#8A8C8F"/>
<path transform="translate(455,231)" d="m0 0 3 1v11l-4 1-1 2-9-1 2-2 10-3 1-6-6-1z" fill="#8B7863"/>
<path transform="translate(391,184)" d="m0 0 10 2 2 3-3 2-9 1z" fill="#777879"/>
<path transform="translate(311,315)" d="m0 0h4l-2 6h-2v2h-5l-1-7z" fill="#806F5F"/>
<path transform="translate(614,423)" d="m0 0h1l-1 9-3 11v7l-4 4 1-9z" fill="#FFFAF0"/>
<path transform="translate(432,303)" d="m0 0 8 4v6l-5-1-3-3z" fill="#CAA871"/>
<path transform="translate(322,302)" d="m0 0h3v2h4v4l-9 2v-7z" fill="#CAA871"/>
<path transform="translate(315,268)" d="m0 0h2l-2 6-5 1-6-3v-3h8l3 1z" fill="#867361"/>
<path transform="translate(454,373)" d="m0 0 5 4 8 10v2l-4-1-3-3v-3l-3-1-3-5z" fill="#898B8E"/>
<path transform="translate(409,224)" d="m0 0 2 1v9l-2 3-2-4h-2l1-3-1-2z" fill="#898B8E"/>
<path transform="translate(313,299)" d="m0 0 2 1v4l-10 1-1-5z" fill="#806F5F"/>
<path transform="translate(385,307)" d="m0 0h17l4 3-11-1-1 2h-2l-5-1v-2z" fill="#777879"/>
<path transform="translate(384,677)" d="m0 0 4 2 3 3v9l-3-4v-2h-2l-3-5z" fill="#2D6498"/>
<path transform="translate(434,239)" d="m0 0h6v6l-7 1-1-5z" fill="#CAA871"/>
<path transform="translate(453,228)" d="m0 0h5l-1 4h-6v2l-8 1 4-4z" fill="#827160"/>
<path transform="translate(182,166)" d="m0 0h2v2h-2l-2 4-12 16-3 2 2-4 10-14z" fill="#FFCC50"/>
<path transform="translate(352,276)" d="m0 0h16l-4 1-1 2-10 2z" fill="#77797A"/>
<path transform="translate(320,279)" d="m0 0 8 1 1 5h-8l-1-1z" fill="#CAA871"/>
<path transform="translate(717,582)" d="m0 0 4 2 6 4 1 6-3 2-4-8-4-4z" fill="#1B5FA0"/>
<path transform="translate(246,257)" d="m0 0h4l-1 8h-5l-1-5z" fill="#FFC846"/>
<path transform="translate(648,586)" d="m0 0 1 4-2 10-3 1v-7l2-7z" fill="#175EA2"/>
<path transform="translate(371,292)" d="m0 0h8v1h12v3h-9l-11-1z" fill="#1159A1"/>
<path transform="translate(446,257)" d="m0 0h11v2l-3 2h-9v-3z" fill="#82715F"/>
<path transform="translate(311,251)" d="m0 0h5l1 7-11-3z" fill="#9B8569"/>
<path transform="translate(432,268)" d="m0 0h7l1 5h-9z" fill="#D1AE6E"/>
<path transform="translate(683,550)" d="m0 0 4 1-4 4-9 1-1-2z" fill="#1A60A1"/>
<path transform="translate(363,268)" d="m0 0 7 1 1 5h-8z" fill="#5E7890"/>
<path transform="translate(431,321)" d="m0 0 2 1v2h2l2 3v3h-3v2l-3-1z" fill="#907D66"/>
<path transform="translate(326,325)" d="m0 0h3l-1 8-4 1-2 1 1-5z" fill="#BA9E68"/>
<path transform="translate(383,210)" d="m0 0h1v12l2 1-1 5 1 6-3 1z" fill="#FEFBF4"/>
<path transform="translate(129,549)" d="m0 0 4 2 5 6h-3l-4-1-3-3z" fill="#1E5F9F"/>
<path transform="translate(129,548)" d="m0 0h29v1l-22 1-3 2z" fill="#FFD35E"/>
<path transform="translate(376,244)" d="m0 0h12l-3 4-2 4v-4l-3 1-4-3z" fill="#747B81"/>
<path transform="translate(354,504)" d="m0 0h11l-2 3h-14v-2z" fill="#7A7E83"/>
<path transform="translate(372,400)" d="m0 0 1 4h17l-3 2-5 2-3-1v-2h-7z" fill="#898B8E"/>
<path transform="translate(322,317)" d="m0 0h6v3l-6 4h-2v-6z" fill="#E0BA68"/>
<path transform="translate(330,264)" d="m0 0h1v18l-5-5 1-1-3-1 3-2h3z" fill="#71767B"/>
<path transform="translate(143,438)" d="m0 0 3 4 3 5v-6l2 3 1 8-4-2-5-9z" fill="#FFFBF3"/>
<path transform="translate(357,240)" d="m0 0 4 2v6h-2v9h-1z" fill="#818284"/>
<path transform="translate(442,649)" d="m0 0 3 1v7l-2 2-5-9z" fill="#FFCA4C"/>
<path transform="translate(352,185)" d="m0 0h3l2 4 1 3-1 1h-5z" fill="#7B7D7F"/>
<path transform="translate(326,312)" d="m0 0h3v8l-1-3-8 1 1-3z" fill="#9B8569"/>
<path transform="translate(391,271)" d="m0 0 9 1v4h-10z" fill="#8A8C8F"/>
<path transform="translate(602,548)" d="m0 0h26v1l-22 1-2 2z" fill="#FFD35E"/>
<path transform="translate(433,280)" d="m0 0 6 1-1 5h-6z" fill="#FFC846"/>
<path transform="translate(322,247)" d="m0 0h7l1 1v11h-1l-1-8-6-1z" fill="#82715F"/>
<path transform="translate(294,570)" d="m0 0 4 1 3 4-4 2-5-6z" fill="#1E5F9F"/>
<path transform="translate(432,292)" d="m0 0 8 1-1 4h-3-4z" fill="#C8A972"/>
<path transform="translate(433,255)" d="m0 0h6l1 4-7 1-2-2z" fill="#DAB56B"/>
<path transform="translate(353,196)" d="m0 0h10v3h-2l-1 3-2-1v-3h-5z" fill="#647383"/>
<path transform="translate(610,559)" d="m0 0 7 6 3 4h-3l-4-2-3-5z" fill="#2A639B"/>
<path transform="translate(224,502)" d="m0 0 2 4 1 3h-5v-2h-4l1-4 1 2z" fill="#808489"/>
<path transform="translate(421,342)" d="m0 0 2 3-2 5-3-2v-3l-3-1v-1z" fill="#7B8086"/>
<path transform="translate(325,332)" d="m0 0 1 2 2 1-5 4-3-1v-5h4z" fill="#9B8C75"/>
<path transform="translate(725,610)" d="m0 0 4 1-2 6h-3l-1 3-1-2z" fill="#2163A1"/>
<path transform="translate(276,593)" d="m0 0 3 2v2h2l2 6-4-2-4-5z" fill="#1C5FA0"/>
<path transform="translate(551,502)" d="m0 0 8 2-1 4h-6z" fill="#B9BABC"/>
<path transform="translate(430,345)" d="m0 0 5 5-3 4-2 1z" fill="#727A81"/>
<path transform="translate(280,709)" d="m0 0h5v2l-11 5v-3l5-3z" fill="#24629E"/>
<path transform="translate(388,450)" d="m0 0 5 2-1 3-11 1 6-3z" fill="#7C8187"/>
<path transform="translate(319,301)" d="m0 0h10v3h-4v-2l-5 1v7h-1z" fill="#9B8569"/>
<path transform="translate(430,238)" d="m0 0h2v11l1 2-2 5h-1z" fill="#777879"/>
<path transform="translate(302,233)" d="m0 0 4 2 2 5-6 1z" fill="#7E7E7E"/>
<path transform="translate(458,221)" d="m0 0h1v6l-7 1 1-4z" fill="#8A8C8F"/>
<path transform="translate(352,181)" d="m0 0h7l-1 2-1 1 1 5h-3v-4h-2z" fill="#6F7A85"/>
<path transform="translate(745,696)" d="m0 0h11l-1 4-6-1v-2z" fill="#0C58A3"/>
<path transform="translate(400,688)" d="m0 0 12 4v2l-8-1-1-3-3-1z" fill="#FFCE54"/>
<path transform="translate(756,597)" d="m0 0h1v14l-2 2-1-10z" fill="#446D97"/>
<path transform="translate(52,715)" d="m0 0 5 4-4 4v-2h-2v-5z" fill="#0C58A3"/>
<path transform="translate(621,572)" d="m0 0h3v2l4 1v2h-6v-2l-4-1h3z" fill="#26619B"/>
<path transform="translate(171,506)" d="m0 0h8v2l4 1h-9l-8-1v-1z" fill="#7E8288"/>
<path transform="translate(404,291)" d="m0 0 2 1v7l-5 1-1-3h5v-2h-2z" fill="#97999B"/>
<path transform="translate(392,269)" d="m0 0h8l1 3-5 1-4-1z" fill="#787E86"/>
</svg>
